<?xml version="1.0" encoding="iso-8859-1"?>
<!-- Generator: Adobe Illustrator 19.0.0, SVG Export Plug-In . SVG Version: 6.00 Build 0)  -->
<svg version="1.1" id="Layer_1" xmlns="http://www.w3.org/2000/svg" xmlns:xlink="http://www.w3.org/1999/xlink" x="0px" y="0px"
	 viewBox="0 0 512 512" style="enable-background:new 0 0 512 512;" xml:space="preserve">
<g>
	<g>
		<path d="M447.264,306.835c-12.389,0-23.972,3.504-33.823,9.564c-21.293-37.316-61.466-62.53-107.419-62.53h-17.685
			c-0.613-26.559-13.652-51.576-36.457-70.588c20.246-42.955,32.41-69.36,36.192-78.565c12.495-30.426-2.092-65.345-32.516-77.842
			c-15.382-6.317-31.909-5.704-46.109,0.37c-8.133-7.695-18.503-13.201-30.32-15.333c-32.37-5.839-63.454,15.747-69.292,48.117
			c-2.039,11.304-8.786,60.144-14.172,99.753c-13.311,4.843-25.639,11.38-36.473,19.507c-21.336,16.003-35.026,36.509-39.717,58.982
			c-0.598-0.061-1.204-0.093-1.818-0.093C7.905,238.177,0,246.082,0,255.832s7.905,17.655,17.655,17.655
			c0.614,0,1.221-0.032,1.818-0.094c4.692,22.475,18.381,42.981,39.717,58.984c18.414,13.81,41.115,23.073,65.708,27.096
			c-0.859,5.872-1.312,11.876-1.312,17.984c0,10.138,1.236,19.99,3.549,29.425h-3.549c-25.96,0-47.08,21.12-47.08,47.08
			s21.12,47.08,47.08,47.08h217.747h0.892c41.474,0,76.268-29.055,85.16-67.871c6.268,2.028,12.945,3.136,19.879,3.136
			c35.695,0,64.736-29.04,64.736-64.736C512,335.876,482.96,306.835,447.264,306.835z M144.585,66.295
			c2.382-13.208,15.068-22.01,28.275-19.635c3.485,0.629,6.652,1.99,9.4,3.875c-1.729,2.78-3.262,5.73-4.546,8.856
			c-4.158,10.122-19.65,52.69-33.387,90.723c-3.982,0.195-7.933,0.525-11.843,0.985C137.427,114.925,142.879,75.764,144.585,66.295z
			 M80.378,304.128c-17.678-13.258-27.413-30.409-27.413-48.296c0-17.887,9.735-35.04,27.413-48.296
			c19.195-14.396,44.99-22.324,72.633-22.324c1.125,0,2.245,0.019,3.362,0.045l12.709,0.297l4.313-11.958
			c20.462-56.747,33.597-92.541,36.984-100.787c5.099-12.415,19.349-18.367,31.764-13.268c12.415,5.099,18.367,19.348,13.268,31.764
			c-3.867,9.415-18.271,40.548-41.656,90.034l-6.611,13.991l13.004,8.387c20.914,13.492,32.909,32.488,32.909,52.117
			c0,17.887-9.735,35.038-27.413,48.296c-19.193,14.397-44.989,22.324-72.633,22.324S99.572,318.524,80.378,304.128z
			 M394.299,413.658c0,28.713-23.36,52.073-52.073,52.073h-0.892h-64.736c-6.379,0-11.77-5.391-11.77-11.77
			c0-6.379,5.391-11.77,11.77-11.77h64.736v-35.31h-64.736c-25.96,0-47.081,21.12-47.081,47.08c0,4.063,0.518,8.007,1.49,11.77
			H123.586c-6.379,0-11.77-5.391-11.77-11.77c0-6.379,5.391-11.77,11.77-11.77h64.736v-35.31h-24.364
			c-3.266-9.21-5.061-19.11-5.061-29.425c0-5.415,0.516-10.708,1.455-15.857c32.501-1.346,62.976-11.595,86.481-29.223
			c16.222-12.167,28.02-26.938,34.81-43.196h24.381c48.675,0,88.276,39.601,88.276,88.276V413.658z M447.264,400.996
			c-6.62,0-12.734-2.199-17.655-5.902v-17.639c0-9.224-1.024-18.213-2.95-26.865c5.312-5.219,12.587-8.445,20.605-8.445
			c16.225,0,29.425,13.2,29.425,29.425S463.49,400.996,447.264,400.996z"/>
	</g>
</g>
<g>
	<g>
		<circle cx="123.586" cy="246.018" r="17.655"/>
	</g>
</g>
<g>
</g>
<g>
</g>
<g>
</g>
<g>
</g>
<g>
</g>
<g>
</g>
<g>
</g>
<g>
</g>
<g>
</g>
<g>
</g>
<g>
</g>
<g>
</g>
<g>
</g>
<g>
</g>
<g>
</g>
</svg>
