<svg id="Layer_1" enable-background="new 0 0 512.001 512.001" height="512" viewBox="0 0 512.001 512.001" width="512" xmlns="http://www.w3.org/2000/svg"><g><g clip-rule="evenodd" fill-rule="evenodd"><path d="m278.501 74.499c0-12.375-10.125-22.499-22.5-22.499s-22.5 10.125-22.5 22.499v28.754c7.386-.827 14.893-1.252 22.5-1.252s15.114.425 22.5 1.252z" fill="#ffda8f"/><path d="m256.001 102.002c-7.606 0-15.114.425-22.5 1.252-99.865 11.18-177.5 95.898-177.5 198.748 0 110.457 89.543 200 200 200s200-89.543 200-200c0-102.85-77.635-187.568-177.5-198.748-7.386-.828-14.893-1.252-22.5-1.252zm-155 200c0-85.604 69.396-155 155-155s155 69.396 155 155-69.396 155-155 155c-85.605 0-155-69.396-155-155z" fill="#ffc144"/><path d="m256.001 147.001c-85.604 0-155 69.396-155 155s69.396 155 155 155 155-69.396 155-155-69.396-155-155-155zm-29 155.001 28.999-86 29 86-29 86z" fill="#99ebfa"/><path d="m256.001 216.001-29 86.001h57.999z" fill="#ff5d7d"/><path d="m285 302.002h-57.999l29 86z" fill="#fff"/></g><g><path d="m288.501 94.52v-20.02c0-1.647-.125-3.265-.363-4.847 6.473-7.598 10.112-17.309 10.112-27.403 0-23.297-18.953-42.25-42.25-42.25s-42.25 18.953-42.25 42.25c0 10.094 3.639 19.806 10.113 27.403-.238 1.582-.363 3.2-.363 4.847v20.022c-28.01 4.368-54.888 14.365-79.051 29.543-4.677 2.938-6.086 9.11-3.148 13.787 2.937 4.677 9.111 6.086 13.787 3.148 30.2-18.971 65.095-28.998 100.912-28.998 104.766 0 190 85.233 190 190s-85.233 190-190 190-190-85.234-190-190c0-35.824 10.027-70.718 28.998-100.911 2.938-4.677 1.529-10.85-3.147-13.788-4.676-2.937-10.849-1.529-13.788 3.147-20.976 33.385-32.063 71.958-32.063 111.552 0 115.794 94.206 210 210 210s210-94.206 210-210c0-104.743-77.082-191.814-177.499-207.482zm-32.5-74.52c12.268 0 22.25 9.981 22.25 22.25 0 2.56-.45 5.072-1.291 7.438-5.664-4.791-12.978-7.688-20.959-7.688-7.982 0-15.296 2.897-20.959 7.689-.84-2.366-1.291-4.878-1.291-7.439 0-12.269 9.981-22.25 22.25-22.25zm-12.5 72.379v-17.879c0-6.892 5.607-12.5 12.5-12.5s12.5 5.607 12.5 12.5v17.885c-4.137-.244-8.303-.383-12.5-.383-4.18 0-8.347.131-12.5.377z"/><path d="m256.001 467.002c90.982 0 165-74.019 165-165s-74.019-165-165-165-165 74.019-165 165 74.019 165 165 165zm-127.875-175.001h-16.773c2.223-32.469 15.176-62.035 35.34-85.166l11.816 11.816c1.953 1.953 4.512 2.929 7.071 2.929s5.119-.977 7.071-2.929c3.905-3.905 3.905-10.237 0-14.142l-11.816-11.816c23.131-20.164 52.697-33.118 85.166-35.341v16.774c0 5.523 4.477 10 10 10s10-4.477 10-10v-16.774c32.469 2.223 62.035 15.176 85.166 35.34l-11.816 11.816c-3.905 3.905-3.905 10.237 0 14.142 1.953 1.953 4.512 2.929 7.071 2.929s5.118-.977 7.071-2.929l11.816-11.816c20.164 23.131 33.118 52.697 35.341 85.166h-16.774c-5.522 0-10 4.477-10 10s4.478 10 10 10h16.774c-2.223 32.469-15.176 62.035-35.34 85.166l-11.817-11.817c-3.906-3.905-10.236-3.905-14.143 0-3.905 3.905-3.905 10.237 0 14.143l11.817 11.817c-23.131 20.164-52.697 33.118-85.166 35.341v-16.774c0-5.523-4.478-10-10-10s-10 4.477-10 10v16.774c-32.469-2.223-62.035-15.177-85.166-35.341l11.816-11.816c3.905-3.905 3.905-10.237 0-14.143s-10.237-3.905-14.143 0l-11.816 11.816c-20.164-23.131-33.117-52.697-35.34-85.166h16.773c5.523 0 10-4.477 10-10s-4.476-9.999-9.999-9.999z"/><path d="m246.525 391.197c1.372 4.066 5.185 6.805 9.476 6.805s8.105-2.738 9.476-6.805l28.999-86c.699-2.073.699-4.318 0-6.391l-28.999-86c-1.371-4.066-5.185-6.805-9.476-6.805s-8.104 2.738-9.476 6.805l-28.999 86c-.699 2.073-.699 4.318 0 6.391zm9.476-34.492-15.074-44.704h30.148zm0-109.407 15.074 44.704h-30.148z"/><path d="m114.579 170.58c2.559 0 5.118-.977 7.071-2.929 3.905-3.905 3.905-10.237 0-14.142l-.005-.005c-3.905-3.905-10.233-3.903-14.139.002-3.905 3.905-3.903 10.239.002 14.144 1.953 1.954 4.512 2.93 7.071 2.93z"/></g></g></svg>